<svg xmlns="http://www.w3.org/2000/svg" viewBox="0 0 560 400" width="560" height="400"><rect width="560" height="400" rx="24" fill="#f3effa"/><text x="280" y="38" text-anchor="middle" font-family="Arial,Helvetica,sans-serif" font-size="22" font-weight="800" fill="#2b2b2b">Squeak &amp; The Fridge Gremlin</text><ellipse cx="160" cy="262" rx="90" ry="10" fill="#000" opacity=".08"/><ellipse cx="400" cy="262" rx="110" ry="11" fill="#000" opacity=".08"/><ellipse cx="160" cy="220" rx="40" ry="38" fill="#cdb4db" stroke="#2b2b2b" stroke-width="3.5"/><circle cx="125" cy="182" r="18" fill="#cdb4db" stroke="#2b2b2b" stroke-width="3.5"/><circle cx="195" cy="182" r="18" fill="#cdb4db" stroke="#2b2b2b" stroke-width="3.5"/><circle cx="125" cy="182" r="9" fill="#ffafcc"/><circle cx="195" cy="182" r="9" fill="#ffafcc"/><ellipse cx="145" cy="215" rx="10" ry="11.0" fill="#fff" stroke="#2b2b2b" stroke-width="3"/><circle cx="147" cy="216.5" r="6.0" fill="#2b2b2b"/><circle cx="149.5" cy="213.0" r="2.2" fill="#fff"/><ellipse cx="175" cy="215" rx="10" ry="11.0" fill="#fff" stroke="#2b2b2b" stroke-width="3"/><circle cx="177" cy="216.5" r="6.0" fill="#2b2b2b"/><circle cx="179.5" cy="213.0" r="2.2" fill="#fff"/><circle cx="160" cy="233" r="4" fill="#ff5d8f"/><path d="M200,240 q30,10 25,-20" stroke="#2b2b2b" stroke-width="3" fill="none"/><rect x="335" y="80" width="130" height="178" rx="16" fill="#e9ecef" stroke="#2b2b2b" stroke-width="3.5"/><line x1="335" y1="140" x2="465" y2="140" stroke="#2b2b2b" stroke-width="3"/><rect x="445" y="100" width="7" height="25" rx="3" fill="#2b2b2b"/><rect x="445" y="155" width="7" height="35" rx="3" fill="#2b2b2b"/><path d="M345,258 L345,200 Q350,165 395,168 Q440,170 440,215 L440,258 Z" fill="#70e000" stroke="#2b2b2b" stroke-width="3.5"/><ellipse cx="376" cy="200" rx="12" ry="13.200000000000001" fill="#fff" stroke="#2b2b2b" stroke-width="3"/><circle cx="373" cy="201.8" r="7.199999999999999" fill="#2b2b2b"/><circle cx="376.0" cy="197.6" r="2.64" fill="#fff"/><ellipse cx="408" cy="200" rx="12" ry="13.200000000000001" fill="#fff" stroke="#2b2b2b" stroke-width="3"/><circle cx="405" cy="201.8" r="7.199999999999999" fill="#2b2b2b"/><circle cx="408.0" cy="197.6" r="2.64" fill="#fff"/><path d="M374,232 l6,-6 l6,6 l6,-6 l6,6 l6,-6 l6,6" stroke="#2b2b2b" stroke-width="3" fill="#fff"/><circle cx="420" cy="178" r="9" fill="none" stroke="#6c757d" stroke-width="4" stroke-dasharray="5 4"/><text x="160" y="300" text-anchor="middle" font-family="Arial,Helvetica,sans-serif" font-size="20" font-weight="700" fill="#2b2b2b">Squeak</text><text x="160" y="322" text-anchor="middle" font-family="Arial,Helvetica,sans-serif" font-size="13" fill="#555">mouse-sized kid</text><text x="160" y="342" text-anchor="middle" font-family="Arial,Helvetica,sans-serif" font-size="13" font-style="italic" fill="#888">“eek!”</text><text x="400" y="300" text-anchor="middle" font-family="Arial,Helvetica,sans-serif" font-size="20" font-weight="700" fill="#2b2b2b">Fridge Gremlin</text><text x="400" y="322" text-anchor="middle" font-family="Arial,Helvetica,sans-serif" font-size="13" fill="#555">runs every appliance</text><text x="400" y="342" text-anchor="middle" font-family="Arial,Helvetica,sans-serif" font-size="13" font-style="italic" fill="#888">“grrr-clank”</text><text x="280" y="385" text-anchor="middle" font-family="Arial,Helvetica,sans-serif" font-size="11" fill="#999">Concept sketch, not final art</text></svg>